<svg width="515" height="307" viewBox="0 0 515 307" fill="none" xmlns="http://www.w3.org/2000/svg">
<path d="M92.7285 306.491C87.9489 306.771 83.3187 306.491 78.8378 305.645C74.357 304.798 69.8637 303.815 65.3704 302.708C55.8236 300.188 47.4096 296.256 40.1282 290.912C38.9955 290.084 37.726 289.244 36.3195 288.398C34.9254 287.552 33.6683 286.718 32.5605 285.885C29.7538 283.633 27.0901 281.38 24.5696 279.141C20.6364 275.495 17.1264 271.5 14.0396 267.17C10.9528 262.827 8.00292 258.404 5.20238 253.906C4.356 252.512 3.64653 251.044 3.08642 249.501C2.53876 247.958 1.97865 246.483 1.41854 245.071C0.57216 242.551 1.26918 240.311 3.50961 238.352C6.59643 235.832 9.68324 233.1 12.7701 230.164C15.8569 227.215 19.0806 224.608 22.4537 222.349C24.1278 220.956 25.7397 219.562 27.2831 218.169C28.8265 216.762 30.3014 215.35 31.7141 213.938C33.3882 212.264 35.6287 211.144 38.4354 210.578C39.8419 210.018 40.8999 210.155 41.5969 211.001C42.2939 211.847 42.9225 212.557 43.4888 213.117C44.6153 214.23 45.5923 215.419 46.4263 216.675C47.2727 217.938 48.119 219.276 48.9654 220.682C51.4859 223.208 53.9317 225.802 56.3091 228.472C58.6989 231.128 61.4372 233.293 64.524 234.967C65.6504 235.533 66.6275 236.099 67.4614 236.659C68.3078 237.225 69.2911 237.792 70.4238 238.352C73.2243 239.465 75.8879 240.517 78.4146 241.512C80.9351 242.495 83.5987 243.397 86.4055 244.225C91.1851 245.917 96.0954 246.06 101.143 244.648C104.229 243.54 107.241 242.352 110.179 241.089C113.129 239.832 115.73 238.072 117.971 235.813C124.692 229.641 126.515 222.076 123.447 213.117C121.468 207.778 117.958 203.43 112.917 200.076C110.957 198.67 108.847 197.189 106.594 195.646C104.354 194.103 102.113 192.778 99.873 191.664C96.4999 189.692 93.2015 187.726 89.9653 185.766C86.7416 183.813 83.1755 182.27 79.261 181.137C77.0206 180.291 74.7677 179.24 72.5148 177.977C70.2744 176.72 68.034 175.532 65.7935 174.418C62.7067 173.012 60.0431 171.606 57.8027 170.212C55.276 168.24 52.7493 166.417 50.2101 164.737C47.6834 163.045 45.1629 161.222 42.6424 159.262C40.6821 157.589 38.7155 155.84 36.7426 154.011C34.7823 152.188 32.685 150.44 30.4446 148.76C28.2041 146.508 26.3122 144.193 24.7688 141.817C23.2254 139.428 21.7567 136.833 20.3626 134.027C18.9499 130.941 17.6119 127.65 16.3547 124.147C15.0914 120.651 14.1765 117.216 13.6164 113.844C9.69569 94.2213 11.8054 75.2888 19.9394 57.0533C21.8936 52.2937 24.2771 47.9448 27.0839 44.0127C29.8844 40.0807 32.6912 36.161 35.498 32.2414C38.8648 28.0294 42.5802 24.3773 46.6503 21.2913C50.7142 18.2054 54.9897 15.2626 59.4706 12.4566C60.8771 11.6291 62.2151 10.8639 63.4784 10.1671C64.7356 9.4578 65.9305 8.81697 67.0631 8.2508C72.6704 5.16488 78.5516 3.21128 84.7127 2.37759C90.8864 1.53144 97.06 0.971497 103.234 0.685303C110.814 0.685303 117.971 1.66832 124.692 3.62191C129.185 4.75425 133.535 6.22877 137.736 8.05171C141.949 9.88087 145.876 12.3322 149.511 15.4181C152.598 17.3779 155.61 19.5493 158.547 21.9384C161.497 24.315 164.105 27.0401 166.364 30.126C168.038 32.1045 169.712 34.0021 171.392 35.8251C173.085 37.6356 174.485 39.6576 175.599 41.8974C177.572 46.1156 177.155 50.0477 174.355 53.6936C172.376 56.4995 170.334 59.1624 168.231 61.6821C166.14 64.2081 163.974 66.871 161.734 69.6707C160.601 71.083 159.269 72.5576 157.726 74.1005C156.182 75.631 154.714 77.0993 153.32 78.5054C151.907 79.8991 150.289 80.8137 148.465 81.2429C146.636 81.6598 144.607 81.8651 142.366 81.8651C142.08 81.8651 141.732 81.7282 141.321 81.442C140.904 81.1621 140.412 80.8821 139.852 80.5959C138.439 79.2022 136.965 77.9517 135.421 76.838C133.878 75.7119 132.409 74.5858 131.015 73.4535C127.928 70.0876 123.721 67.7047 118.394 66.311C113.894 64.9049 109.395 64.1335 104.901 63.9966C100.421 63.8473 95.9398 64.0588 91.4589 64.6188C87.8058 64.6188 84.0219 66.3048 80.1074 69.6707C76.1742 72.4767 73.6413 75.7057 72.5148 79.3516C71.6809 83.2712 71.4071 86.7677 71.6933 89.8537C72.241 94.0719 73.9151 97.8609 76.7219 101.227C79.261 104.58 82.9079 107.66 87.6751 110.46C90.7619 112.438 94.0541 114.404 97.5579 116.358C101.055 118.318 104.354 120.284 107.441 122.256C108.287 122.822 109.196 123.245 110.179 123.525C111.156 123.793 112.071 124.21 112.917 124.769C116.004 126.182 119.091 127.594 122.178 129C125.265 130.394 128.208 131.931 131.015 133.604C134.102 135.016 136.971 136.429 139.628 137.835C142.298 139.229 144.893 141.045 147.42 143.285C148.814 144.399 150.214 145.519 151.627 146.645C153.033 147.777 154.297 148.897 155.411 150.004C156.537 150.851 157.452 151.765 158.149 152.742C158.846 153.725 159.755 154.496 160.887 155.056C163.408 157.016 165.791 159.125 168.032 161.378C170.272 163.617 172.096 166.28 173.508 169.366C174.069 170.76 174.766 172.166 175.599 173.572C176.446 174.966 177.149 176.372 177.715 177.778C178.562 180.304 179.47 182.898 180.454 185.567C181.431 188.224 182.059 190.812 182.346 193.332C186.26 213.241 184.15 232.317 176.023 250.546C174.062 255.025 171.747 259.3 169.077 263.362C166.42 267.431 163.551 271.426 160.464 275.358C157.377 279.576 153.724 283.16 149.511 286.109C145.31 289.045 141.103 292.05 136.89 295.118C135.776 295.684 134.587 296.325 133.33 297.034C132.067 297.731 130.729 298.496 129.322 299.323C123.429 302.142 117.46 304.039 111.424 305.022C105.399 305.999 99.1635 306.491 92.7285 306.491Z" fill="#4D4D4D"/>
<path d="M493.234 13.0521C500.434 14.4458 505.836 16.8847 509.439 20.3688C513.036 23.8529 514.841 27.9218 514.841 32.5632C514.841 40.2469 512.688 45.8277 508.394 49.3118C504.093 52.7959 497.297 54.1895 488.006 53.4927C467.077 51.8689 450.746 50.7677 439.015 50.1828C427.278 49.6042 411.887 49.1998 392.837 48.9634C384.237 91.706 376.339 134.673 369.139 177.876C366.581 193.672 363.911 211.97 361.123 232.775C358.335 253.568 356.474 270.348 355.547 283.121C355.08 289.859 352.292 295.029 347.182 298.625C342.067 302.227 335.912 304.025 328.711 304.025C321.044 304.025 315.119 302.171 310.937 298.451C306.755 294.736 304.664 289.859 304.664 283.817C304.664 278.243 305.535 269.01 307.278 256.119C309.02 243.227 311.049 229.702 313.377 215.529C315.928 201.343 317.907 189.025 319.302 178.572C321.853 160.922 324.759 143.383 328.014 125.962C331.263 108.542 334.518 92.0544 337.773 76.4879C338.47 73.0037 339.279 68.997 340.212 64.4677C341.139 59.9383 342.185 54.8864 343.349 49.3118C320.577 50.0086 302.679 51.8689 289.653 54.8864C276.64 57.9101 267.404 62.147 261.947 67.6034C256.482 73.066 253.757 80.0902 253.757 88.6823C253.757 96.5837 256.078 104.131 260.727 111.329C261.654 112.959 262.121 114.701 262.121 116.555C262.121 120.972 259.507 125.091 254.279 128.924C249.052 132.756 243.65 134.673 238.074 134.673C234.122 134.673 230.867 133.515 228.315 131.188C223.666 127.244 219.833 121.607 216.814 114.29C213.79 106.974 212.284 98.6742 212.284 89.3791C212.284 69.6378 218.731 53.7851 231.626 41.8209C244.521 29.8443 264.15 21.0656 290.524 15.491C316.912 9.91644 350.78 7.12915 392.14 7.12915C417.694 7.12915 438.082 7.59577 453.304 8.52279C468.539 9.45604 481.845 10.9617 493.234 13.0521Z" fill="#1D4076"/>
</svg>
